<svg version="1.1" id="Layer_1" xmlns="http://www.w3.org/2000/svg" xmlns:xlink="http://www.w3.org/1999/xlink" x="0px" y="0px"
	 width="100%" viewBox="0 0 1000 1000" enable-background="new 0 0 1000 1000" xml:space="preserve">
<path fill="#FFFFFF" opacity="1.000000" stroke="none" 
	d="
M580.000000,1001.000000 
	C386.666656,1001.000000 193.833328,1001.000000 1.000000,1001.000000 
	C1.000000,667.666687 1.000000,334.333344 1.000000,1.000000 
	C334.333344,1.000000 667.666687,1.000000 1001.000000,1.000000 
	C1001.000000,334.333344 1001.000000,667.666687 1001.000000,1001.000000 
	C860.833313,1001.000000 720.666687,1001.000000 580.000000,1001.000000 
M640.500000,54.999844 
	C445.428589,54.999844 250.357147,54.999844 55.307121,54.999844 
	C55.307121,352.980957 55.307121,650.347412 55.307121,947.692749 
	C352.980927,947.692749 650.347351,947.692749 947.692749,947.692749 
	C947.692749,650.018982 947.692749,352.652557 947.692749,54.999844 
	C845.423828,54.999844 743.461914,54.999844 640.500000,54.999844 
z"/>
<path fill="#00C178" opacity="1.000000" stroke="none" 
	d="
M641.000000,54.999844 
	C743.461914,54.999844 845.423828,54.999844 947.692749,54.999844 
	C947.692749,352.652557 947.692749,650.018982 947.692749,947.692749 
	C650.347351,947.692749 352.980927,947.692749 55.307121,947.692749 
	C55.307121,650.347412 55.307121,352.980957 55.307121,54.999844 
	C250.357147,54.999844 445.428589,54.999844 641.000000,54.999844 
M330.198822,437.061157 
	C327.554138,437.368164 324.896698,437.591827 322.266693,437.994659 
	C286.347626,443.496521 260.183167,461.608612 247.173874,496.469635 
	C241.642334,511.292480 239.354660,526.778442 239.307587,542.528503 
	C239.172577,587.691101 239.084045,632.855347 239.371201,678.016479 
	C239.436523,688.291077 240.413712,698.670959 242.135345,708.804565 
	C248.996979,749.192871 274.457825,775.903748 313.845001,784.618347 
	C329.441223,788.069031 345.223846,787.398682 361.086578,787.145630 
	C394.741699,786.608887 428.411591,787.000244 462.850281,786.794556 
	C463.233917,784.785461 463.951141,782.776672 463.952911,780.767212 
	C464.011353,714.491638 464.053345,648.215820 463.893768,581.940552 
	C463.882080,577.089355 465.252380,575.879395 470.013580,575.893127 
	C526.963501,576.056885 583.914124,576.000916 640.864563,576.002441 
	C642.519348,576.002502 644.174072,576.002441 645.828857,576.002441 
	C645.823181,575.759766 645.817566,575.517029 645.811890,575.274353 
	C644.693665,575.080994 643.575500,574.887573 643.249146,574.346436 
	C688.943176,570.362000 723.112000,548.351624 745.585388,508.440918 
	C755.218445,491.333435 759.391113,472.592804 760.802795,453.623535 
	C761.027771,454.414124 761.252686,455.204742 761.477661,455.995361 
	C761.999695,424.926819 762.018250,394.028198 761.944397,363.129761 
	C761.940674,361.595947 761.132324,360.064026 760.110474,358.060669 
	C759.794373,355.250702 759.491821,352.439178 759.160217,349.631042 
	C752.083923,289.706085 699.390076,241.482117 639.022522,241.178574 
	C541.880310,240.690094 444.733734,241.076080 346.779236,241.438461 
	C346.519073,243.364212 346.032837,245.289795 346.031555,247.215714 
	C345.991547,307.649353 345.999268,368.082977 345.998016,428.516632 
	C345.997894,434.991241 345.985748,434.812683 339.536499,435.079315 
	C336.678741,435.197449 333.857697,436.203400 330.198822,437.061157 
z"/>
<path fill="#FEFFFF" opacity="1.000000" stroke="none" 
	d="
M347.589020,241.092606 
	C444.733734,241.076080 541.880310,240.690094 639.022522,241.178574 
	C699.390076,241.482117 752.083923,289.706085 759.160217,349.631042 
	C759.491821,352.439178 759.794373,355.250702 760.328735,358.512329 
	C760.546997,358.963959 760.771790,359.362518 760.514282,359.640625 
	C760.332947,360.908997 760.409180,361.899292 760.403076,363.357819 
	C760.364624,393.583405 760.408447,423.340759 760.452271,453.098083 
	C759.391113,472.592804 755.218445,491.333435 745.585388,508.440918 
	C723.112000,548.351624 688.943176,570.362000 642.434937,574.434937 
	C638.626282,574.566833 635.631897,574.647644 632.637451,574.648071 
	C577.882324,574.655640 523.127197,574.648926 468.372101,574.673950 
	C466.576508,574.674805 464.781006,574.976807 462.786865,575.171509 
	C462.588226,575.204651 462.402130,575.561279 462.402130,575.561279 
	C462.402130,575.561279 462.652008,575.876709 462.549927,576.341431 
	C462.430298,645.056335 462.415222,713.306641 462.381866,781.556885 
	C462.380981,783.375000 462.182037,785.193054 462.075439,787.011108 
	C428.411591,787.000244 394.741699,786.608887 361.086578,787.145630 
	C345.223846,787.398682 329.441223,788.069031 313.845001,784.618347 
	C274.457825,775.903748 248.996979,749.192871 242.135345,708.804565 
	C240.413712,698.670959 239.436523,688.291077 239.371201,678.016479 
	C239.084045,632.855347 239.172577,587.691101 239.307587,542.528503 
	C239.354660,526.778442 241.642334,511.292480 247.173874,496.469635 
	C260.183167,461.608612 286.347626,443.496521 322.266693,437.994659 
	C324.896698,437.591827 327.554138,437.368164 331.067047,436.968689 
	C337.024445,436.876221 342.113647,436.876221 347.426849,436.876221 
	C347.426849,435.192139 347.426910,434.553009 347.426849,433.913879 
	C347.422272,373.965515 347.414062,314.017120 347.420746,254.068756 
	C347.421234,249.743378 347.530365,245.417984 347.589020,241.092606 
M335.235077,499.972870 
	C319.740295,503.843384 311.020172,515.709290 310.658051,533.744995 
	C310.658051,546.175781 310.658051,558.606567 310.658051,571.207642 
	C322.870148,571.207642 335.066528,571.207642 347.201721,571.207642 
	C347.201721,546.973450 347.201721,523.111206 347.201721,498.584259 
	C343.167236,499.100616 339.585724,499.558960 335.235077,499.972870 
M598.866577,485.165344 
	C625.315918,481.822235 645.124207,459.452179 645.185364,432.803772 
	C645.220947,417.305328 645.189026,401.806732 645.191772,386.308228 
	C645.197693,353.786133 622.393494,330.921478 589.909790,330.912292 
	C549.413696,330.900848 508.917572,330.909698 468.421478,330.909760 
	C466.660950,330.909760 464.900421,330.909760 463.299957,330.909760 
	C463.067444,331.894775 462.928345,332.208740 462.928467,332.522644 
	C462.947235,383.015564 462.976044,433.508484 462.969604,484.850098 
	C464.484680,485.182922 465.999390,485.804596 467.514893,485.806519 
	C508.901764,485.859558 550.288696,485.859924 591.675659,485.819153 
	C593.795715,485.817078 595.915344,485.371185 598.866577,485.165344 
M310.249084,681.398499 
	C310.384064,690.421997 310.874390,699.381897 314.818054,707.747070 
	C320.626831,720.068359 334.639923,727.286621 347.277161,724.397522 
	C347.277161,692.160339 347.277161,659.905945 347.277161,627.574097 
	C334.826538,627.574097 322.646149,627.574097 310.249359,627.574097 
	C310.249359,645.461609 310.249359,662.942383 310.249084,681.398499 
z"/>
<path fill="#00B966" opacity="1.000000" stroke="none" 
	d="
M462.462860,786.902832 
	C462.182037,785.193054 462.380981,783.375000 462.381866,781.556885 
	C462.415222,713.306641 462.430298,645.056335 462.638489,576.235229 
	C462.926544,575.502441 462.978668,575.327148 462.985474,575.138428 
	C464.781006,574.976807 466.576508,574.674805 468.372101,574.673950 
	C523.127197,574.648926 577.882324,574.655640 632.637451,574.648071 
	C635.631897,574.647644 638.626282,574.566833 642.039001,574.608826 
	C643.575500,574.887573 644.693665,575.080994 645.811890,575.274353 
	C645.817566,575.517029 645.823181,575.759766 645.828857,576.002441 
	C644.174072,576.002441 642.519348,576.002502 640.864563,576.002441 
	C583.914124,576.000916 526.963501,576.056885 470.013580,575.893127 
	C465.252380,575.879395 463.882080,577.089355 463.893768,581.940552 
	C464.053345,648.215820 464.011353,714.491638 463.952911,780.767212 
	C463.951141,782.776672 463.233917,784.785461 462.462860,786.902832 
z"/>
<path fill="#00B966" opacity="1.000000" stroke="none" 
	d="
M347.184143,241.265533 
	C347.530365,245.417984 347.421234,249.743378 347.420746,254.068756 
	C347.414062,314.017120 347.422272,373.965515 347.426849,433.913879 
	C347.426910,434.553009 347.426849,435.192139 347.426849,436.876221 
	C342.113647,436.876221 337.024445,436.876221 331.477631,436.841248 
	C333.857697,436.203400 336.678741,435.197449 339.536499,435.079315 
	C345.985748,434.812683 345.997894,434.991241 345.998016,428.516632 
	C345.999268,368.082977 345.991547,307.649353 346.031555,247.215714 
	C346.032837,245.289795 346.519073,243.364212 347.184143,241.265533 
z"/>
<path fill="#00B966" opacity="1.000000" stroke="none" 
	d="
M760.627563,453.360809 
	C760.408447,423.340759 760.364624,393.583405 760.580933,363.042847 
	C760.817871,361.293915 760.794861,360.328217 760.771790,359.362518 
	C760.771790,359.362518 760.546997,358.963959 760.622803,358.747589 
	C761.132324,360.064026 761.940674,361.595947 761.944397,363.129761 
	C762.018250,394.028198 761.999695,424.926819 761.477661,455.995361 
	C761.252686,455.204742 761.027771,454.414124 760.627563,453.360809 
z"/>
<path fill="#00C178" opacity="1.000000" stroke="none" 
	d="
M463.004456,484.001404 
	C462.976044,433.508484 462.947235,383.015564 462.928467,332.522644 
	C462.928345,332.208740 463.067444,331.894775 463.299957,330.909760 
	C464.900421,330.909760 466.660950,330.909760 468.421478,330.909760 
	C508.917572,330.909698 549.413696,330.900848 589.909790,330.912292 
	C622.393494,330.921478 645.197693,353.786133 645.191772,386.308228 
	C645.189026,401.806732 645.220947,417.305328 645.185364,432.803772 
	C645.124207,459.452179 625.315918,481.822235 598.157104,484.847870 
	C595.482056,484.376923 593.516541,484.091614 591.550842,484.089386 
	C548.702026,484.041107 505.853241,484.024261 463.004456,484.001404 
z"/>
<path fill="#03C178" opacity="1.000000" stroke="none" 
	d="
M310.249207,680.910828 
	C310.249359,662.942383 310.249359,645.461609 310.249359,627.574097 
	C322.646149,627.574097 334.826538,627.574097 347.277161,627.574097 
	C347.277161,659.905945 347.277161,692.160339 347.277161,724.397522 
	C334.639923,727.286621 320.626831,720.068359 314.818054,707.747070 
	C310.874390,699.381897 310.384064,690.421997 310.249207,680.910828 
z"/>
<path fill="#00C178" opacity="1.000000" stroke="none" 
	d="
M310.969513,532.992249 
	C311.020172,515.709290 319.740295,503.843384 335.911255,500.283661 
	C338.398682,500.727325 340.224426,501.070007 342.017914,500.946167 
	C345.055634,500.736389 346.074982,501.904633 346.059479,504.963531 
	C345.956451,525.290894 345.937347,545.619507 346.072266,565.946533 
	C346.095367,569.427734 344.667450,570.113098 341.601288,570.057922 
	C333.272858,569.907959 324.933716,569.816040 316.611664,570.090759 
	C312.708588,570.219604 311.834045,568.747437 311.921051,565.156433 
	C312.138916,556.164124 312.045776,547.162415 311.946472,538.165894 
	C311.927368,536.437988 311.310577,534.716614 310.969513,532.992249 
z"/>
<path fill="#14BE71" opacity="1.000000" stroke="none" 
	d="
M310.813782,533.368652 
	C311.310577,534.716614 311.927368,536.437988 311.946472,538.165894 
	C312.045776,547.162415 312.138916,556.164124 311.921051,565.156433 
	C311.834045,568.747437 312.708588,570.219604 316.611664,570.090759 
	C324.933716,569.816040 333.272858,569.907959 341.601288,570.057922 
	C344.667450,570.113098 346.095367,569.427734 346.072266,565.946533 
	C345.937347,545.619507 345.956451,525.290894 346.059479,504.963531 
	C346.074982,501.904633 345.055634,500.736389 342.017914,500.946167 
	C340.224426,501.070007 338.398682,500.727325 336.295837,500.305908 
	C339.585724,499.558960 343.167236,499.100616 347.201721,498.584259 
	C347.201721,523.111206 347.201721,546.973450 347.201721,571.207642 
	C335.066528,571.207642 322.870148,571.207642 310.658051,571.207642 
	C310.658051,558.606567 310.658051,546.175781 310.813782,533.368652 
z"/>
<path fill="#2EC786" opacity="1.000000" stroke="none" 
	d="
M462.987030,484.425720 
	C505.853241,484.024261 548.702026,484.041107 591.550842,484.089386 
	C593.516541,484.091614 595.482056,484.376923 597.741455,484.831146 
	C595.915344,485.371185 593.795715,485.817078 591.675659,485.819153 
	C550.288696,485.859924 508.901764,485.859558 467.514893,485.806519 
	C465.999390,485.804596 464.484680,485.182922 462.987030,484.425720 
z"/>
<path fill="#00C178" opacity="1.000000" stroke="none" 
	d="
M760.514282,359.640625 
	C760.794861,360.328217 760.817871,361.293915 760.663147,362.574585 
	C760.409180,361.899292 760.332947,360.908997 760.514282,359.640625 
z"/>
<path fill="#00C178" opacity="1.000000" stroke="none" 
	d="
M462.786865,575.171509 
	C462.978668,575.327148 462.926544,575.502441 462.740570,575.770508 
	C462.652008,575.876709 462.402130,575.561279 462.402130,575.561279 
	C462.402130,575.561279 462.588226,575.204651 462.786865,575.171509 
z"/>
</svg>